<svg width="33" height="33" viewBox="0 0 33 33" fill="none" xmlns="http://www.w3.org/2000/svg">
<path d="M26.2779 29.3333H14.0558V33H26.2779C28.0607 33 29.7705 32.2918 31.0311 31.0311C32.2918 29.7704 33 28.0606 33 26.2778V6.72222C33 4.93938 32.2918 3.22955 31.0311 1.96889C29.7705 0.708232 28.0607 0 26.2779 0H6.72258C4.93976 0 3.22996 0.708232 1.96932 1.96889C0.708674 3.22955 0.000452355 4.93938 0.000452355 6.72222V25.2633C-0.0119807 26.1184 0.232132 26.9575 0.701285 27.6725C1.17044 28.3874 1.8431 28.9453 2.63244 29.2742C3.42179 29.6031 4.29159 29.6879 5.12959 29.5176C5.96759 29.3473 6.73531 28.9298 7.33368 28.3189L19.5557 16.0356V23.2222H23.2224V11.6111C23.2224 11.1249 23.0292 10.6586 22.6854 10.3147C22.3416 9.97093 21.8753 9.77778 21.389 9.77778H9.7781V13.4444H16.9647L4.74261 25.6972C4.6595 25.795 4.54771 25.8641 4.42309 25.8948C4.29848 25.9255 4.16737 25.9162 4.04836 25.8682C3.92934 25.8202 3.82847 25.7359 3.76003 25.6273C3.69159 25.5188 3.65907 25.3914 3.66707 25.2633V6.72222C3.66707 5.91184 3.98899 5.13465 4.56201 4.56162C5.13503 3.98859 5.91221 3.66667 6.72258 3.66667H26.2779C27.0882 3.66667 27.8654 3.98859 28.4384 4.56162C29.0115 5.13465 29.3334 5.91184 29.3334 6.72222V26.2778C29.3334 27.0882 29.0115 27.8654 28.4384 28.4384C27.8654 29.0114 27.0882 29.3333 26.2779 29.3333Z" fill="white"/>
</svg>
