<svg width="34" height="34" viewBox="0 0 34 34" fill="none" xmlns="http://www.w3.org/2000/svg">
<path d="M25.1788 0H8.2611C6.07084 0.00234419 3.97097 0.870872 2.42222 2.41501C0.87347 3.95916 0.00235118 6.05279 0 8.23654V25.1034C0.00235118 27.2872 0.87347 29.3808 2.42222 30.925C3.97097 32.4691 6.07084 33.3376 8.2611 33.34H25.1788C27.369 33.3376 29.4689 32.4691 31.0175 30.9249C32.5662 29.3808 33.4372 27.2871 33.4394 25.1034V8.23654C33.4372 6.05284 32.5662 3.9592 31.0175 2.41505C29.4689 0.870889 27.369 0.00234443 25.1788 0ZM30.2653 25.1034C30.2638 26.4481 29.7274 27.7372 28.7739 28.6881C27.8204 29.639 26.5275 30.174 25.1788 30.1758H8.2611C6.91237 30.1741 5.61937 29.6392 4.66572 28.6883C3.71207 27.7374 3.17565 26.4482 3.17413 25.1034V8.23654C3.17565 6.89182 3.71207 5.6026 4.66572 4.65169C5.61937 3.70078 6.91237 3.16583 8.2611 3.16417H25.1788C26.5275 3.16596 27.8204 3.70098 28.7739 4.65188C29.7274 5.60277 30.2638 6.89191 30.2653 8.23654V25.1034Z" fill="white"/>
<path d="M16.7198 8.73083C15.1449 8.73094 13.6055 9.19664 12.2961 10.0691C10.9867 10.9415 9.96615 12.1814 9.36355 13.6321C8.76095 15.0828 8.60333 16.6791 8.91064 18.2191C9.21794 19.7591 9.97636 21.1736 11.09 22.2839C12.2036 23.3941 13.6225 24.1502 15.1671 24.4565C16.7117 24.7628 18.3127 24.6055 19.7677 24.0046C21.2226 23.4037 22.4662 22.3861 23.3412 21.0806C24.2161 19.775 24.6831 18.2401 24.6831 16.6699C24.6807 14.565 23.841 12.5469 22.3481 11.0585C20.8552 9.57017 18.831 8.73304 16.7198 8.73083ZM16.7198 21.4448C15.7726 21.4447 14.8467 21.1646 14.0592 20.6399C13.2717 20.1151 12.658 19.3693 12.2956 18.4968C11.9332 17.6243 11.8384 16.6643 12.0233 15.7381C12.2081 14.8119 12.6643 13.9611 13.3341 13.2934C14.0039 12.6256 14.8572 12.1709 15.7862 11.9867C16.7152 11.8025 17.6781 11.8971 18.5532 12.2585C19.4283 12.6199 20.1762 13.232 20.7024 14.0172C21.2286 14.8024 21.5095 15.7255 21.5095 16.6699C21.5082 17.936 21.0032 19.1499 20.1052 20.0451C19.2072 20.9403 17.9897 21.4437 16.7198 21.4448Z" fill="white"/>
<path d="M25.0091 6.28662C24.5887 6.28652 24.1777 6.41072 23.8281 6.64351C23.4785 6.87631 23.206 7.20724 23.045 7.59446C22.884 7.98168 22.8419 8.40779 22.9238 8.8189C23.0058 9.23002 23.2082 9.60767 23.5054 9.90409C23.8027 10.2005 24.1814 10.4024 24.5937 10.4842C25.006 10.566 25.4334 10.5241 25.8218 10.3637C26.2102 10.2033 26.5422 9.9317 26.7758 9.5832C27.0094 9.23469 27.134 8.82495 27.134 8.40579C27.134 7.84384 26.9102 7.3049 26.5117 6.9075C26.1132 6.51009 25.5727 6.28676 25.0091 6.28662Z" fill="white"/>
</svg>
