<svg width="39" height="38" viewBox="0 0 39 38" fill="none" xmlns="http://www.w3.org/2000/svg">
<path d="M19.322 0C8.6642 0 0 8.51977 0 19C0 29.2989 8.36784 37.6948 18.7714 37.9826C18.9547 38.0016 19.1339 38 19.322 38C19.51 38 19.6892 38 19.8725 37.9826C30.2761 37.6948 38.6439 29.2989 38.6439 19C38.6439 8.51977 29.9797 0 19.322 0ZM18.1854 2.47978V8.94119H13.497C13.7545 8.18974 14.0251 7.47121 14.3316 6.82817C15.4603 4.46055 16.8324 3.0119 18.1854 2.47978ZM20.4585 2.47978C21.8116 3.0119 23.1837 4.46055 24.3123 6.82817C24.6188 7.47121 24.8894 8.18974 25.147 8.94119H20.4585V2.47978ZM13.9409 3.10846C13.321 3.9163 12.7595 4.84418 12.2716 5.86766C11.8249 6.80475 11.4233 7.84232 11.0817 8.94119H5.68293C7.74296 6.2471 10.6164 4.19252 13.9409 3.10846ZM24.703 3.10846C28.0275 4.19252 30.9009 6.2471 32.961 8.94119H27.5622C27.2206 7.84232 26.819 6.80475 26.3723 5.86766C25.8845 4.84418 25.3229 3.9163 24.703 3.10846ZM4.24444 11.1765H10.4957C10.0319 13.2442 9.76482 15.5049 9.6965 17.8823H2.30869C2.47045 15.4731 3.15884 13.1993 4.24444 11.1765ZM12.8399 11.1765H18.1854V17.8823H11.9519C12.0273 15.4712 12.3474 13.201 12.8399 11.1765ZM20.4585 11.1765H25.804C26.2965 13.201 26.6166 15.4712 26.692 17.8823H20.4585V11.1765ZM28.1483 11.1765H34.3995C35.4851 13.1993 36.1735 15.4731 36.3352 17.8823H28.9474C28.8791 15.5049 28.612 13.2442 28.1483 11.1765ZM2.30869 20.1176H9.6965C9.76429 22.4978 10.0313 24.757 10.4957 26.8235H4.24444C3.15727 24.7967 2.46828 22.5321 2.30869 20.1176ZM11.9519 20.1176H18.1854V26.8235H12.8221C12.3317 24.801 12.0264 22.5249 11.9519 20.1176ZM20.4585 20.1176H26.692C26.6175 22.5249 26.3122 24.801 25.8218 26.8235H20.4585V20.1176ZM28.9474 20.1176H36.3352C36.1756 22.5321 35.4866 24.7967 34.3995 26.8235H28.1483C28.6126 24.757 28.8796 22.4978 28.9474 20.1176ZM5.66517 29.0588H11.0817C11.4233 30.1558 11.8249 31.1778 12.2716 32.115C12.7655 33.1511 13.3295 34.1096 13.9587 34.9265C10.6172 33.8418 7.7307 31.7681 5.66517 29.0588ZM13.497 29.0588H18.1854V35.5378C16.8324 35.0056 15.4603 33.5395 14.3316 31.1719C14.0229 30.5243 13.7559 29.8163 13.497 29.0588ZM20.4585 29.0588H25.147C24.888 29.8163 24.621 30.5243 24.3123 31.1719C23.1837 33.5395 21.8116 35.0056 20.4585 35.5378V29.0588ZM27.5622 29.0588H32.9787C30.9132 31.7681 28.0268 33.8418 24.6852 34.9265C25.3144 34.1096 25.8784 33.1511 26.3723 32.115C26.819 31.1778 27.2206 30.1558 27.5622 29.0588Z" fill="white"/>
</svg>
